<?xml version="1.0" encoding="UTF-8"?>
<svg version="1.1" xmlns="http://www.w3.org/2000/svg" width="48" height="48">
<path d="M0 0 C1.00023193 0.00523682 2.00046387 0.01047363 3.03100586 0.01586914 C4.1105957 0.0190918 5.19018555 0.02231445 6.30249023 0.02563477 C8.00695312 0.03820313 8.00695312 0.03820313 9.74584961 0.05102539 C11.45611328 0.05779297 11.45611328 0.05779297 13.20092773 0.06469727 C16.02845312 0.07652792 18.85587601 0.09301129 21.68334961 0.11352539 C22.30834961 2.48852539 22.30834961 2.48852539 22.68334961 5.11352539 C20.68334961 7.11352539 20.68334961 7.11352539 17.05834961 7.23852539 C15.94459961 7.19727539 14.83084961 7.15602539 13.68334961 7.11352539 C14.01334961 8.76352539 14.34334961 10.41352539 14.68334961 12.11352539 C24.25334961 12.11352539 33.82334961 12.11352539 43.68334961 12.11352539 C43.68334961 15.74352539 43.68334961 19.37352539 43.68334961 23.11352539 C43.02334961 23.77352539 42.36334961 24.43352539 41.68334961 25.11352539 C39.05834961 24.73852539 39.05834961 24.73852539 36.68334961 24.11352539 C36.5924707 25.17893555 36.5924707 25.17893555 36.49975586 26.26586914 C36.4159668 27.1849707 36.33217773 28.10407227 36.24584961 29.05102539 C36.16463867 29.96754883 36.08342773 30.88407227 35.99975586 31.82836914 C35.68334961 34.11352539 35.68334961 34.11352539 34.68334961 35.11352539 C35.67334961 35.44352539 36.66334961 35.77352539 37.68334961 36.11352539 C37.66272461 35.30915039 37.64209961 34.50477539 37.62084961 33.67602539 C37.68334961 31.11352539 37.68334961 31.11352539 38.68334961 30.11352539 C40.34952076 30.07288707 42.01723056 30.07080439 43.68334961 30.11352539 C45.0056415 32.75810918 44.78012155 34.7911384 44.74584961 37.73852539 C44.73682617 38.74141602 44.72780273 39.74430664 44.71850586 40.77758789 C44.7069043 41.54844727 44.69530273 42.31930664 44.68334961 43.11352539 C44.02334961 43.11352539 43.36334961 43.11352539 42.68334961 43.11352539 C42.68334961 44.76352539 42.68334961 46.41352539 42.68334961 48.11352539 C33.44334961 48.11352539 24.20334961 48.11352539 14.68334961 48.11352539 C13.68334961 39.11352539 13.68334961 39.11352539 15.68334961 36.11352539 C16.34334961 36.11352539 17.00334961 36.11352539 17.68334961 36.11352539 C17.68334961 34.79352539 17.68334961 33.47352539 17.68334961 32.11352539 C16.83571045 32.12923584 16.83571045 32.12923584 15.97094727 32.14526367 C13.41679308 32.18677327 10.86270979 32.21283499 8.30834961 32.23852539 C7.41889648 32.2552832 6.52944336 32.27204102 5.61303711 32.28930664 C4.33686523 32.29897461 4.33686523 32.29897461 3.03491211 32.30883789 C1.85662842 32.32454834 1.85662842 32.32454834 0.65454102 32.34057617 C-1.31665039 32.11352539 -1.31665039 32.11352539 -3.31665039 30.11352539 C-2.76109484 25.55796984 -2.76109484 25.55796984 -1.31665039 24.11352539 C0.99334961 24.11352539 3.30334961 24.11352539 5.68334961 24.11352539 C5.68334961 18.50352539 5.68334961 12.89352539 5.68334961 7.11352539 C3.37334961 7.11352539 1.06334961 7.11352539 -1.31665039 7.11352539 C-1.97665039 6.78352539 -2.63665039 6.45352539 -3.31665039 6.11352539 C-3.35937139 4.44740634 -3.35728871 2.77969654 -3.31665039 1.11352539 C-2.31665039 0.11352539 -2.31665039 0.11352539 0 0 Z M13.68334961 16.11352539 C13.68334961 18.75352539 13.68334961 21.39352539 13.68334961 24.11352539 C15.00334961 24.11352539 16.32334961 24.11352539 17.68334961 24.11352539 C18.01760696 21.73977678 18.01760696 21.73977678 17.68334961 19.11352539 C15.78290291 17.27036868 15.78290291 17.27036868 13.68334961 16.11352539 Z M25.68334961 19.11352539 C25.68334961 20.76352539 25.68334961 22.41352539 25.68334961 24.11352539 C26.67334961 24.11352539 27.66334961 24.11352539 28.68334961 24.11352539 C28.68334961 23.12352539 28.68334961 22.13352539 28.68334961 21.11352539 C30.99334961 21.11352539 33.30334961 21.11352539 35.68334961 21.11352539 C35.68334961 20.45352539 35.68334961 19.79352539 35.68334961 19.11352539 C32.38334961 19.11352539 29.08334961 19.11352539 25.68334961 19.11352539 Z M25.68334961 31.11352539 C25.68334961 32.76352539 25.68334961 34.41352539 25.68334961 36.11352539 C27.33334961 36.11352539 28.98334961 36.11352539 30.68334961 36.11352539 C30.02334961 34.46352539 29.36334961 32.81352539 28.68334961 31.11352539 C27.69334961 31.11352539 26.70334961 31.11352539 25.68334961 31.11352539 Z " fill="#06B8EB" transform="translate(3.316650390625,-0.113525390625)"/>
<path d="M0 0 C8.91 0 17.82 0 27 0 C27 1.65 27 3.3 27 5 C17.76 5 8.52 5 -1 5 C-0.67 3.35 -0.34 1.7 0 0 Z " fill="#FFFFFF" transform="translate(19,43)"/>
<path d="M0 0 C1.65 0 3.3 0 5 0 C4.67 1.65 4.34 3.3 4 5 C2.68 4.67 1.36 4.34 0 4 C0 2.68 0 1.36 0 0 Z " fill="#FFFFFF" transform="translate(43,0)"/>
</svg>
